<?xml version="1.0" encoding="utf-8" standalone="no"?>
<!DOCTYPE svg PUBLIC "-//W3C//DTD SVG 1.1//EN"
  "http://www.w3.org/Graphics/SVG/1.1/DTD/svg11.dtd">
<svg xmlns:xlink="http://www.w3.org/1999/xlink" width="720pt" height="576pt" viewBox="0 0 720 576" xmlns="http://www.w3.org/2000/svg" version="1.1">
 <metadata>
  <rdf:RDF xmlns:dc="http://purl.org/dc/elements/1.1/" xmlns:cc="http://creativecommons.org/ns#" xmlns:rdf="http://www.w3.org/1999/02/22-rdf-syntax-ns#">
   <cc:Work>
    <dc:type rdf:resource="http://purl.org/dc/dcmitype/StillImage"/>
    <dc:date>2024-10-05T17:51:25.825528</dc:date>
    <dc:format>image/svg+xml</dc:format>
    <dc:creator>
     <cc:Agent>
      <dc:title>Matplotlib v3.7.2, https://matplotlib.org/</dc:title>
     </cc:Agent>
    </dc:creator>
   </cc:Work>
  </rdf:RDF>
 </metadata>
 <defs>
  <style type="text/css">*{stroke-linejoin: round; stroke-linecap: butt}</style>
 </defs>
 <g id="figure_1">
  <g id="patch_1">
   <path d="M 0 576 
L 720 576 
L 720 0 
L 0 0 
z
" style="fill: #ffffff"/>
  </g>
  <g id="axes_1">
   <g id="patch_2">
    <path d="M 35.38 259.77 
L 356.35 259.77 
L 356.35 26.88 
L 35.38 26.88 
z
" style="fill: #ffffff"/>
   </g>
   <g id="matplotlib.axis_1">
    <g id="xtick_1">
     <g id="line2d_1">
      <defs>
       <path id="mfeb0d1a90a" d="M 0 0 
L 0 3.5 
" style="stroke: #000000; stroke-width: 0.8"/>
      </defs>
      <g>
       <use xlink:href="#mfeb0d1a90a" x="49.969545" y="259.77" style="stroke: #000000; stroke-width: 0.8"/>
      </g>
     </g>
    </g>
    <g id="xtick_2">
     <g id="line2d_2">
      <g>
       <use xlink:href="#mfeb0d1a90a" x="108.386202" y="259.77" style="stroke: #000000; stroke-width: 0.8"/>
      </g>
     </g>
    </g>
    <g id="xtick_3">
     <g id="line2d_3">
      <g>
       <use xlink:href="#mfeb0d1a90a" x="166.802859" y="259.77" style="stroke: #000000; stroke-width: 0.8"/>
      </g>
     </g>
    </g>
    <g id="xtick_4">
     <g id="line2d_4">
      <g>
       <use xlink:href="#mfeb0d1a90a" x="225.219516" y="259.77" style="stroke: #000000; stroke-width: 0.8"/>
      </g>
     </g>
    </g>
    <g id="xtick_5">
     <g id="line2d_5">
      <g>
       <use xlink:href="#mfeb0d1a90a" x="283.636173" y="259.77" style="stroke: #000000; stroke-width: 0.8"/>
      </g>
     </g>
    </g>
    <g id="xtick_6">
     <g id="line2d_6">
      <g>
       <use xlink:href="#mfeb0d1a90a" x="342.05283" y="259.77" style="stroke: #000000; stroke-width: 0.8"/>
      </g>
     </g>
    </g>
    <g id="text_1">
     <!-- Time -->
     <g transform="translate(183.631406 278.368437) scale(0.1 -0.1)">
      <defs>
       <path id="DejaVuSans-54" d="M -19 4666 
L 3928 4666 
L 3928 4134 
L 2272 4134 
L 2272 0 
L 1638 0 
L 1638 4134 
L -19 4134 
L -19 4666 
z
" transform="scale(0.015625)"/>
       <path id="DejaVuSans-69" d="M 603 3500 
L 1178 3500 
L 1178 0 
L 603 0 
L 603 3500 
z
M 603 4863 
L 1178 4863 
L 1178 4134 
L 603 4134 
L 603 4863 
z
" transform="scale(0.015625)"/>
       <path id="DejaVuSans-6d" d="M 3328 2828 
Q 3544 3216 3844 3400 
Q 4144 3584 4550 3584 
Q 5097 3584 5394 3201 
Q 5691 2819 5691 2113 
L 5691 0 
L 5113 0 
L 5113 2094 
Q 5113 2597 4934 2840 
Q 4756 3084 4391 3084 
Q 3944 3084 3684 2787 
Q 3425 2491 3425 1978 
L 3425 0 
L 2847 0 
L 2847 2094 
Q 2847 2600 2669 2842 
Q 2491 3084 2119 3084 
Q 1678 3084 1418 2786 
Q 1159 2488 1159 1978 
L 1159 0 
L 581 0 
L 581 3500 
L 1159 3500 
L 1159 2956 
Q 1356 3278 1631 3431 
Q 1906 3584 2284 3584 
Q 2666 3584 2933 3390 
Q 3200 3197 3328 2828 
z
" transform="scale(0.015625)"/>
       <path id="DejaVuSans-65" d="M 3597 1894 
L 3597 1613 
L 953 1613 
Q 991 1019 1311 708 
Q 1631 397 2203 397 
Q 2534 397 2845 478 
Q 3156 559 3463 722 
L 3463 178 
Q 3153 47 2828 -22 
Q 2503 -91 2169 -91 
Q 1331 -91 842 396 
Q 353 884 353 1716 
Q 353 2575 817 3079 
Q 1281 3584 2069 3584 
Q 2775 3584 3186 3129 
Q 3597 2675 3597 1894 
z
M 3022 2063 
Q 3016 2534 2758 2815 
Q 2500 3097 2075 3097 
Q 1594 3097 1305 2825 
Q 1016 2553 972 2059 
L 3022 2063 
z
" transform="scale(0.015625)"/>
      </defs>
      <use xlink:href="#DejaVuSans-54"/>
      <use xlink:href="#DejaVuSans-69" x="57.958984"/>
      <use xlink:href="#DejaVuSans-6d" x="85.742188"/>
      <use xlink:href="#DejaVuSans-65" x="183.154297"/>
     </g>
    </g>
   </g>
   <g id="matplotlib.axis_2">
    <g id="ytick_1">
     <g id="line2d_7">
      <defs>
       <path id="m14e88d5a5e" d="M 0 0 
L -3.5 0 
" style="stroke: #000000; stroke-width: 0.8"/>
      </defs>
      <g>
       <use xlink:href="#m14e88d5a5e" x="35.38" y="249.187362" style="stroke: #000000; stroke-width: 0.8"/>
      </g>
     </g>
    </g>
    <g id="ytick_2">
     <g id="line2d_8">
      <g>
       <use xlink:href="#m14e88d5a5e" x="35.38" y="222.721992" style="stroke: #000000; stroke-width: 0.8"/>
      </g>
     </g>
    </g>
    <g id="ytick_3">
     <g id="line2d_9">
      <g>
       <use xlink:href="#m14e88d5a5e" x="35.38" y="196.256621" style="stroke: #000000; stroke-width: 0.8"/>
      </g>
     </g>
    </g>
    <g id="ytick_4">
     <g id="line2d_10">
      <g>
       <use xlink:href="#m14e88d5a5e" x="35.38" y="169.79125" style="stroke: #000000; stroke-width: 0.8"/>
      </g>
     </g>
    </g>
    <g id="ytick_5">
     <g id="line2d_11">
      <g>
       <use xlink:href="#m14e88d5a5e" x="35.38" y="143.325879" style="stroke: #000000; stroke-width: 0.8"/>
      </g>
     </g>
    </g>
    <g id="ytick_6">
     <g id="line2d_12">
      <g>
       <use xlink:href="#m14e88d5a5e" x="35.38" y="116.860509" style="stroke: #000000; stroke-width: 0.8"/>
      </g>
     </g>
    </g>
    <g id="ytick_7">
     <g id="line2d_13">
      <g>
       <use xlink:href="#m14e88d5a5e" x="35.38" y="90.395138" style="stroke: #000000; stroke-width: 0.8"/>
      </g>
     </g>
    </g>
    <g id="ytick_8">
     <g id="line2d_14">
      <g>
       <use xlink:href="#m14e88d5a5e" x="35.38" y="63.929767" style="stroke: #000000; stroke-width: 0.8"/>
      </g>
     </g>
    </g>
    <g id="ytick_9">
     <g id="line2d_15">
      <g>
       <use xlink:href="#m14e88d5a5e" x="35.38" y="37.464396" style="stroke: #000000; stroke-width: 0.8"/>
      </g>
     </g>
    </g>
    <g id="text_2">
     <!-- Air pressure -->
     <g transform="translate(22.300312 173.370313) rotate(-90) scale(0.1 -0.1)">
      <defs>
       <path id="DejaVuSans-41" d="M 2188 4044 
L 1331 1722 
L 3047 1722 
L 2188 4044 
z
M 1831 4666 
L 2547 4666 
L 4325 0 
L 3669 0 
L 3244 1197 
L 1141 1197 
L 716 0 
L 50 0 
L 1831 4666 
z
" transform="scale(0.015625)"/>
       <path id="DejaVuSans-72" d="M 2631 2963 
Q 2534 3019 2420 3045 
Q 2306 3072 2169 3072 
Q 1681 3072 1420 2755 
Q 1159 2438 1159 1844 
L 1159 0 
L 581 0 
L 581 3500 
L 1159 3500 
L 1159 2956 
Q 1341 3275 1631 3429 
Q 1922 3584 2338 3584 
Q 2397 3584 2469 3576 
Q 2541 3569 2628 3553 
L 2631 2963 
z
" transform="scale(0.015625)"/>
       <path id="DejaVuSans-20" transform="scale(0.015625)"/>
       <path id="DejaVuSans-70" d="M 1159 525 
L 1159 -1331 
L 581 -1331 
L 581 3500 
L 1159 3500 
L 1159 2969 
Q 1341 3281 1617 3432 
Q 1894 3584 2278 3584 
Q 2916 3584 3314 3078 
Q 3713 2572 3713 1747 
Q 3713 922 3314 415 
Q 2916 -91 2278 -91 
Q 1894 -91 1617 61 
Q 1341 213 1159 525 
z
M 3116 1747 
Q 3116 2381 2855 2742 
Q 2594 3103 2138 3103 
Q 1681 3103 1420 2742 
Q 1159 2381 1159 1747 
Q 1159 1113 1420 752 
Q 1681 391 2138 391 
Q 2594 391 2855 752 
Q 3116 1113 3116 1747 
z
" transform="scale(0.015625)"/>
       <path id="DejaVuSans-73" d="M 2834 3397 
L 2834 2853 
Q 2591 2978 2328 3040 
Q 2066 3103 1784 3103 
Q 1356 3103 1142 2972 
Q 928 2841 928 2578 
Q 928 2378 1081 2264 
Q 1234 2150 1697 2047 
L 1894 2003 
Q 2506 1872 2764 1633 
Q 3022 1394 3022 966 
Q 3022 478 2636 193 
Q 2250 -91 1575 -91 
Q 1294 -91 989 -36 
Q 684 19 347 128 
L 347 722 
Q 666 556 975 473 
Q 1284 391 1588 391 
Q 1994 391 2212 530 
Q 2431 669 2431 922 
Q 2431 1156 2273 1281 
Q 2116 1406 1581 1522 
L 1381 1569 
Q 847 1681 609 1914 
Q 372 2147 372 2553 
Q 372 3047 722 3315 
Q 1072 3584 1716 3584 
Q 2034 3584 2315 3537 
Q 2597 3491 2834 3397 
z
" transform="scale(0.015625)"/>
       <path id="DejaVuSans-75" d="M 544 1381 
L 544 3500 
L 1119 3500 
L 1119 1403 
Q 1119 906 1312 657 
Q 1506 409 1894 409 
Q 2359 409 2629 706 
Q 2900 1003 2900 1516 
L 2900 3500 
L 3475 3500 
L 3475 0 
L 2900 0 
L 2900 538 
Q 2691 219 2414 64 
Q 2138 -91 1772 -91 
Q 1169 -91 856 284 
Q 544 659 544 1381 
z
M 1991 3584 
L 1991 3584 
z
" transform="scale(0.015625)"/>
      </defs>
      <use xlink:href="#DejaVuSans-41"/>
      <use xlink:href="#DejaVuSans-69" x="68.408203"/>
      <use xlink:href="#DejaVuSans-72" x="96.191406"/>
      <use xlink:href="#DejaVuSans-20" x="137.304688"/>
      <use xlink:href="#DejaVuSans-70" x="169.091797"/>
      <use xlink:href="#DejaVuSans-72" x="232.568359"/>
      <use xlink:href="#DejaVuSans-65" x="271.431641"/>
      <use xlink:href="#DejaVuSans-73" x="332.955078"/>
      <use xlink:href="#DejaVuSans-73" x="385.054688"/>
      <use xlink:href="#DejaVuSans-75" x="437.154297"/>
      <use xlink:href="#DejaVuSans-72" x="500.533203"/>
      <use xlink:href="#DejaVuSans-65" x="539.396484"/>
     </g>
    </g>
   </g>
   <g id="line2d_16">
    <path d="M 49.969545 143.325879 
L 56.40181 111.595921 
L 59.910318 95.339942 
L 62.834075 82.78361 
L 65.17308 73.560975 
L 67.512085 65.192321 
L 69.85109 57.780085 
L 71.605344 52.903612 
L 73.359598 48.650016 
L 75.113852 45.048598 
L 76.283355 43.022416 
L 77.452858 41.303418 
L 78.62236 39.896869 
L 79.791863 38.807076 
L 80.961365 38.037378 
L 82.130868 37.590131 
L 83.300371 37.466705 
L 84.469873 37.667478 
L 85.639376 38.191835 
L 86.808879 39.038171 
L 87.978381 40.203892 
L 89.147884 41.685431 
L 90.317387 43.478248 
L 91.486889 45.576853 
L 93.241143 49.283804 
L 94.995397 53.638568 
L 96.749651 58.611146 
L 98.503905 64.167285 
L 100.84291 72.416533 
L 103.181916 81.53377 
L 106.105672 93.980003 
L 109.61418 110.138328 
L 114.292191 133.022115 
L 123.063461 176.386955 
L 126.571968 192.553906 
L 129.495725 205.009817 
L 131.83473 214.136294 
L 134.173736 222.395995 
L 136.512741 229.687812 
L 138.266995 234.46733 
L 140.021249 238.619016 
L 141.775503 242.114272 
L 142.945005 244.067678 
L 144.114508 245.712557 
L 145.284011 247.043871 
L 146.453513 248.057544 
L 147.623016 248.750471 
L 148.792519 249.12053 
L 149.962021 249.166587 
L 151.131524 248.888502 
L 152.301027 248.287126 
L 153.470529 247.364301 
L 154.640032 246.122853 
L 155.809535 244.566585 
L 156.979037 242.700261 
L 158.733291 239.332181 
L 160.487545 235.302759 
L 162.241799 230.639749 
L 163.996053 225.375275 
L 166.335058 217.483609 
L 168.674064 208.684192 
L 171.013069 199.084735 
L 173.936825 186.140187 
L 177.445333 169.549363 
L 183.292847 140.529789 
L 189.14036 111.722987 
L 192.648868 95.458676 
L 195.572624 82.892894 
L 197.91163 73.661185 
L 200.250635 65.28223 
L 202.58964 57.858593 
L 204.343894 52.97293 
L 206.098148 48.709667 
L 207.852402 45.098171 
L 209.606656 42.163321 
L 210.776159 40.592848 
L 211.945661 39.337 
L 213.115164 38.399623 
L 214.284667 37.783589 
L 215.454169 37.490782 
L 216.623672 37.522102 
L 217.793175 37.87745 
L 218.962677 38.55574 
L 220.13218 39.554894 
L 221.301682 40.871851 
L 222.471185 42.502579 
L 223.640688 44.442083 
L 225.394942 47.917048 
L 227.149196 52.049241 
L 228.90345 56.810196 
L 230.657704 62.167118 
L 232.996709 70.1724 
L 235.335714 79.073141 
L 238.259471 91.291386 
L 241.183227 104.504286 
L 245.276487 124.189661 
L 258.141016 187.172901 
L 261.064772 200.043677 
L 263.988529 211.830275 
L 266.327534 220.326732 
L 268.666539 227.880635 
L 270.420793 232.871421 
L 272.175047 237.245369 
L 273.929301 240.972349 
L 275.683555 244.026688 
L 276.853058 245.678638 
L 278.022561 247.017128 
L 279.192063 248.038058 
L 280.361566 248.738302 
L 281.531069 249.115715 
L 282.700571 249.169142 
L 283.870074 248.898418 
L 285.039576 248.304373 
L 286.209079 247.388826 
L 287.378582 246.15458 
L 288.548084 244.605417 
L 289.717587 242.746081 
L 291.471841 239.388211 
L 293.226095 235.368613 
L 294.980349 230.714975 
L 296.734603 225.459353 
L 299.073608 217.57858 
L 301.412613 208.788893 
L 303.751619 199.197885 
L 306.675375 186.26194 
L 310.183883 169.678355 
L 316.031396 140.662908 
L 321.87891 111.850102 
L 325.387418 95.577486 
L 328.311174 83.002274 
L 330.650179 73.761506 
L 332.989185 65.372263 
L 335.32819 57.937236 
L 337.082444 53.042391 
L 338.836698 48.769467 
L 340.590952 45.147899 
L 341.760455 43.107894 
L 341.760455 43.107894 
" clip-path="url(#pa431e30b1f)" style="fill: none; stroke: #1f77b4; stroke-width: 1.5; stroke-linecap: square"/>
   </g>
   <g id="patch_3">
    <path d="M 35.38 259.77 
L 35.38 26.88 
" style="fill: none; stroke: #000000; stroke-width: 0.8; stroke-linejoin: miter; stroke-linecap: square"/>
   </g>
   <g id="patch_4">
    <path d="M 356.35 259.77 
L 356.35 26.88 
" style="fill: none; stroke: #000000; stroke-width: 0.8; stroke-linejoin: miter; stroke-linecap: square"/>
   </g>
   <g id="patch_5">
    <path d="M 35.38 259.77 
L 356.35 259.77 
" style="fill: none; stroke: #000000; stroke-width: 0.8; stroke-linejoin: miter; stroke-linecap: square"/>
   </g>
   <g id="patch_6">
    <path d="M 35.38 26.88 
L 356.35 26.88 
" style="fill: none; stroke: #000000; stroke-width: 0.8; stroke-linejoin: miter; stroke-linecap: square"/>
   </g>
   <g id="text_3">
    <!-- A3 -->
    <g transform="translate(187.943125 20.88) scale(0.12 -0.12)">
     <defs>
      <path id="DejaVuSans-33" d="M 2597 2516 
Q 3050 2419 3304 2112 
Q 3559 1806 3559 1356 
Q 3559 666 3084 287 
Q 2609 -91 1734 -91 
Q 1441 -91 1130 -33 
Q 819 25 488 141 
L 488 750 
Q 750 597 1062 519 
Q 1375 441 1716 441 
Q 2309 441 2620 675 
Q 2931 909 2931 1356 
Q 2931 1769 2642 2001 
Q 2353 2234 1838 2234 
L 1294 2234 
L 1294 2753 
L 1863 2753 
Q 2328 2753 2575 2939 
Q 2822 3125 2822 3475 
Q 2822 3834 2567 4026 
Q 2313 4219 1838 4219 
Q 1578 4219 1281 4162 
Q 984 4106 628 3988 
L 628 4550 
Q 988 4650 1302 4700 
Q 1616 4750 1894 4750 
Q 2613 4750 3031 4423 
Q 3450 4097 3450 3541 
Q 3450 3153 3228 2886 
Q 3006 2619 2597 2516 
z
" transform="scale(0.015625)"/>
     </defs>
     <use xlink:href="#DejaVuSans-41"/>
     <use xlink:href="#DejaVuSans-33" x="68.408203"/>
    </g>
   </g>
  </g>
  <g id="axes_2">
   <g id="patch_7">
    <path d="M 388.23 259.77 
L 709.2 259.77 
L 709.2 26.88 
L 388.23 26.88 
z
" style="fill: #ffffff"/>
   </g>
   <g id="matplotlib.axis_3">
    <g id="xtick_7">
     <g id="line2d_17">
      <g>
       <use xlink:href="#mfeb0d1a90a" x="402.819545" y="259.77" style="stroke: #000000; stroke-width: 0.8"/>
      </g>
     </g>
    </g>
    <g id="xtick_8">
     <g id="line2d_18">
      <g>
       <use xlink:href="#mfeb0d1a90a" x="461.236202" y="259.77" style="stroke: #000000; stroke-width: 0.8"/>
      </g>
     </g>
    </g>
    <g id="xtick_9">
     <g id="line2d_19">
      <g>
       <use xlink:href="#mfeb0d1a90a" x="519.652859" y="259.77" style="stroke: #000000; stroke-width: 0.8"/>
      </g>
     </g>
    </g>
    <g id="xtick_10">
     <g id="line2d_20">
      <g>
       <use xlink:href="#mfeb0d1a90a" x="578.069516" y="259.77" style="stroke: #000000; stroke-width: 0.8"/>
      </g>
     </g>
    </g>
    <g id="xtick_11">
     <g id="line2d_21">
      <g>
       <use xlink:href="#mfeb0d1a90a" x="636.486173" y="259.77" style="stroke: #000000; stroke-width: 0.8"/>
      </g>
     </g>
    </g>
    <g id="xtick_12">
     <g id="line2d_22">
      <g>
       <use xlink:href="#mfeb0d1a90a" x="694.90283" y="259.77" style="stroke: #000000; stroke-width: 0.8"/>
      </g>
     </g>
    </g>
    <g id="text_4">
     <!-- Time -->
     <g transform="translate(536.481406 278.368437) scale(0.1 -0.1)">
      <use xlink:href="#DejaVuSans-54"/>
      <use xlink:href="#DejaVuSans-69" x="57.958984"/>
      <use xlink:href="#DejaVuSans-6d" x="85.742188"/>
      <use xlink:href="#DejaVuSans-65" x="183.154297"/>
     </g>
    </g>
   </g>
   <g id="matplotlib.axis_4">
    <g id="ytick_10">
     <g id="line2d_23">
      <g>
       <use xlink:href="#m14e88d5a5e" x="388.23" y="249.187161" style="stroke: #000000; stroke-width: 0.8"/>
      </g>
     </g>
    </g>
    <g id="ytick_11">
     <g id="line2d_24">
      <g>
       <use xlink:href="#m14e88d5a5e" x="388.23" y="222.721977" style="stroke: #000000; stroke-width: 0.8"/>
      </g>
     </g>
    </g>
    <g id="ytick_12">
     <g id="line2d_25">
      <g>
       <use xlink:href="#m14e88d5a5e" x="388.23" y="196.256793" style="stroke: #000000; stroke-width: 0.8"/>
      </g>
     </g>
    </g>
    <g id="ytick_13">
     <g id="line2d_26">
      <g>
       <use xlink:href="#m14e88d5a5e" x="388.23" y="169.791608" style="stroke: #000000; stroke-width: 0.8"/>
      </g>
     </g>
    </g>
    <g id="ytick_14">
     <g id="line2d_27">
      <g>
       <use xlink:href="#m14e88d5a5e" x="388.23" y="143.326424" style="stroke: #000000; stroke-width: 0.8"/>
      </g>
     </g>
    </g>
    <g id="ytick_15">
     <g id="line2d_28">
      <g>
       <use xlink:href="#m14e88d5a5e" x="388.23" y="116.861239" style="stroke: #000000; stroke-width: 0.8"/>
      </g>
     </g>
    </g>
    <g id="ytick_16">
     <g id="line2d_29">
      <g>
       <use xlink:href="#m14e88d5a5e" x="388.23" y="90.396055" style="stroke: #000000; stroke-width: 0.8"/>
      </g>
     </g>
    </g>
    <g id="ytick_17">
     <g id="line2d_30">
      <g>
       <use xlink:href="#m14e88d5a5e" x="388.23" y="63.93087" style="stroke: #000000; stroke-width: 0.8"/>
      </g>
     </g>
    </g>
    <g id="ytick_18">
     <g id="line2d_31">
      <g>
       <use xlink:href="#m14e88d5a5e" x="388.23" y="37.465686" style="stroke: #000000; stroke-width: 0.8"/>
      </g>
     </g>
    </g>
    <g id="text_5">
     <!-- Air pressure -->
     <g transform="translate(375.150312 173.370313) rotate(-90) scale(0.1 -0.1)">
      <use xlink:href="#DejaVuSans-41"/>
      <use xlink:href="#DejaVuSans-69" x="68.408203"/>
      <use xlink:href="#DejaVuSans-72" x="96.191406"/>
      <use xlink:href="#DejaVuSans-20" x="137.304688"/>
      <use xlink:href="#DejaVuSans-70" x="169.091797"/>
      <use xlink:href="#DejaVuSans-72" x="232.568359"/>
      <use xlink:href="#DejaVuSans-65" x="271.431641"/>
      <use xlink:href="#DejaVuSans-73" x="332.955078"/>
      <use xlink:href="#DejaVuSans-73" x="385.054688"/>
      <use xlink:href="#DejaVuSans-75" x="437.154297"/>
      <use xlink:href="#DejaVuSans-72" x="500.533203"/>
      <use xlink:href="#DejaVuSans-65" x="539.396484"/>
     </g>
    </g>
   </g>
   <g id="line2d_32">
    <path d="M 402.819545 143.326424 
L 407.497556 108.851592 
L 410.421313 88.987536 
L 412.760318 74.734126 
L 414.514572 65.259935 
L 416.268826 56.992139 
L 418.02308 50.058503 
L 419.192582 46.231092 
L 420.362085 43.071028 
L 421.531588 40.60003 
L 422.70109 38.835083 
L 423.285842 38.22136 
L 423.870593 37.788315 
L 424.455344 37.536692 
L 425.040096 37.466923 
L 425.624847 37.579129 
L 426.209598 37.873115 
L 426.79435 38.348378 
L 427.379101 39.004099 
L 428.548604 40.852102 
L 429.718106 43.404422 
L 430.887609 46.643517 
L 432.057111 50.547125 
L 433.226614 55.088414 
L 434.980868 63.026579 
L 436.735122 72.205651 
L 438.489376 82.483782 
L 440.828381 97.620937 
L 443.752138 118.254239 
L 454.277662 194.749906 
L 456.616667 209.320917 
L 458.370921 219.080651 
L 460.125175 227.669723 
L 461.879429 234.955402 
L 463.048931 239.031932 
L 464.218434 242.450667 
L 465.387937 245.18811 
L 466.557439 247.225447 
L 467.726942 248.548675 
L 468.311693 248.939461 
L 468.896445 249.148698 
L 469.481196 249.176024 
L 470.065947 249.021393 
L 470.650699 248.68507 
L 471.23545 248.167635 
L 471.820201 247.469975 
L 472.989704 245.53909 
L 474.159207 242.905686 
L 475.328709 239.587863 
L 476.498212 235.608424 
L 477.667715 230.994721 
L 479.421968 222.955426 
L 481.176222 213.685591 
L 482.930476 203.328465 
L 485.269482 188.106375 
L 488.193238 167.402831 
L 498.134011 94.870322 
L 500.473016 79.996436 
L 502.22727 69.961024 
L 503.981524 61.059358 
L 505.735778 53.428999 
L 506.905281 49.107471 
L 508.074783 45.43352 
L 509.244286 42.432398 
L 510.413788 40.124731 
L 511.583291 38.526381 
L 512.168042 37.996826 
L 512.752794 37.648333 
L 513.337545 37.481504 
L 513.922296 37.496623 
L 514.507048 37.693665 
L 515.091799 38.072292 
L 515.67655 38.631853 
L 516.846053 40.289617 
L 518.015556 42.655565 
L 519.185058 45.713435 
L 520.354561 49.44221 
L 521.524064 53.816261 
L 523.278318 61.520305 
L 525.032572 70.488534 
L 526.786825 80.582357 
L 529.125831 95.519903 
L 532.049587 115.985277 
L 537.312349 155.15175 
L 540.820857 180.690156 
L 543.744614 200.277832 
L 546.083619 214.228844 
L 547.837873 223.434107 
L 549.592127 231.401432 
L 550.76163 235.963591 
L 551.931132 239.889044 
L 553.100635 243.150812 
L 554.270138 245.726476 
L 555.43964 247.598333 
L 556.024392 248.266122 
L 556.609143 248.753518 
L 557.193894 249.059683 
L 557.778645 249.184091 
L 558.363397 249.126528 
L 558.948148 248.887092 
L 559.532899 248.466196 
L 560.117651 247.864564 
L 561.287153 246.123533 
L 562.456656 243.675966 
L 563.626159 240.538686 
L 564.795661 236.733255 
L 565.965164 232.285829 
L 567.719418 224.47897 
L 569.473672 215.418027 
L 571.227926 205.243022 
L 573.566931 190.217314 
L 576.490688 169.677295 
L 582.338201 126.139622 
L 585.846709 100.948962 
L 588.185714 85.514719 
L 590.524719 71.667129 
L 592.278973 62.553242 
L 594.033227 54.687576 
L 595.20273 50.198134 
L 596.372233 46.348773 
L 597.541735 43.16595 
L 598.711238 40.671541 
L 599.880741 38.88269 
L 600.465492 38.256883 
L 601.050243 37.811692 
L 601.634995 37.547883 
L 602.219746 37.465909 
L 602.804497 37.565911 
L 603.389248 37.847717 
L 603.974 38.310842 
L 604.558751 38.954491 
L 605.728254 40.778626 
L 606.897756 43.307582 
L 608.067259 46.523979 
L 609.236762 50.40571 
L 610.406264 54.926096 
L 612.160518 62.835038 
L 613.914772 71.987848 
L 615.669026 82.243083 
L 618.008032 97.355549 
L 620.931788 117.968293 
L 631.457312 194.492358 
L 633.796317 209.090456 
L 635.550571 218.874703 
L 637.304825 227.491472 
L 639.059079 234.807602 
L 640.228582 238.905731 
L 641.398084 242.346934 
L 642.567587 245.107557 
L 643.73709 247.168628 
L 644.906592 248.51598 
L 645.491344 248.918924 
L 646.076095 249.140352 
L 646.660846 249.179885 
L 647.245598 249.037454 
L 647.830349 248.713304 
L 648.4151 248.207992 
L 648.999852 247.522387 
L 650.169354 245.61532 
L 651.338857 243.00521 
L 652.508359 239.709997 
L 653.677862 235.752329 
L 654.847365 231.159407 
L 656.601619 223.14912 
L 658.355873 213.905299 
L 660.110127 203.570793 
L 662.449132 188.372983 
L 665.372889 167.689442 
L 675.898412 91.26667 
L 678.237418 76.763243 
L 679.991672 67.064558 
L 681.745925 58.544379 
L 683.500179 51.334374 
L 684.669682 47.311486 
L 685.839185 43.94852 
L 687.008687 41.268589 
L 688.17819 39.290112 
L 688.762941 38.56836 
L 689.347693 38.026689 
L 689.932444 37.66603 
L 690.517195 37.487002 
L 691.101947 37.489915 
L 691.686698 37.674762 
L 692.271449 38.041226 
L 692.856201 38.588677 
L 693.440952 39.316173 
L 694.610455 41.305995 
L 694.610455 41.305995 
" clip-path="url(#p044c89bdd1)" style="fill: none; stroke: #1f77b4; stroke-width: 1.5; stroke-linecap: square"/>
   </g>
   <g id="patch_8">
    <path d="M 388.23 259.77 
L 388.23 26.88 
" style="fill: none; stroke: #000000; stroke-width: 0.8; stroke-linejoin: miter; stroke-linecap: square"/>
   </g>
   <g id="patch_9">
    <path d="M 709.2 259.77 
L 709.2 26.88 
" style="fill: none; stroke: #000000; stroke-width: 0.8; stroke-linejoin: miter; stroke-linecap: square"/>
   </g>
   <g id="patch_10">
    <path d="M 388.23 259.77 
L 709.2 259.77 
" style="fill: none; stroke: #000000; stroke-width: 0.8; stroke-linejoin: miter; stroke-linecap: square"/>
   </g>
   <g id="patch_11">
    <path d="M 388.23 26.88 
L 709.2 26.88 
" style="fill: none; stroke: #000000; stroke-width: 0.8; stroke-linejoin: miter; stroke-linecap: square"/>
   </g>
   <g id="text_6">
    <!-- E4 -->
    <g transform="translate(541.10625 20.88) scale(0.12 -0.12)">
     <defs>
      <path id="DejaVuSans-45" d="M 628 4666 
L 3578 4666 
L 3578 4134 
L 1259 4134 
L 1259 2753 
L 3481 2753 
L 3481 2222 
L 1259 2222 
L 1259 531 
L 3634 531 
L 3634 0 
L 628 0 
L 628 4666 
z
" transform="scale(0.015625)"/>
      <path id="DejaVuSans-34" d="M 2419 4116 
L 825 1625 
L 2419 1625 
L 2419 4116 
z
M 2253 4666 
L 3047 4666 
L 3047 1625 
L 3713 1625 
L 3713 1100 
L 3047 1100 
L 3047 0 
L 2419 0 
L 2419 1100 
L 313 1100 
L 313 1709 
L 2253 4666 
z
" transform="scale(0.015625)"/>
     </defs>
     <use xlink:href="#DejaVuSans-45"/>
     <use xlink:href="#DejaVuSans-34" x="63.183594"/>
    </g>
   </g>
  </g>
  <g id="axes_3">
   <g id="patch_12">
    <path d="M 35.38 540.62 
L 356.35 540.62 
L 356.35 307.73 
L 35.38 307.73 
z
" style="fill: #ffffff"/>
   </g>
   <g id="matplotlib.axis_5">
    <g id="xtick_13">
     <g id="line2d_33">
      <g>
       <use xlink:href="#mfeb0d1a90a" x="35.38" y="540.62" style="stroke: #000000; stroke-width: 0.8"/>
      </g>
     </g>
    </g>
    <g id="xtick_14">
     <g id="line2d_34">
      <g>
       <use xlink:href="#mfeb0d1a90a" x="99.574" y="540.62" style="stroke: #000000; stroke-width: 0.8"/>
      </g>
     </g>
    </g>
    <g id="xtick_15">
     <g id="line2d_35">
      <g>
       <use xlink:href="#mfeb0d1a90a" x="163.768" y="540.62" style="stroke: #000000; stroke-width: 0.8"/>
      </g>
     </g>
    </g>
    <g id="xtick_16">
     <g id="line2d_36">
      <g>
       <use xlink:href="#mfeb0d1a90a" x="227.962" y="540.62" style="stroke: #000000; stroke-width: 0.8"/>
      </g>
     </g>
    </g>
    <g id="xtick_17">
     <g id="line2d_37">
      <g>
       <use xlink:href="#mfeb0d1a90a" x="292.156" y="540.62" style="stroke: #000000; stroke-width: 0.8"/>
      </g>
     </g>
    </g>
    <g id="xtick_18">
     <g id="line2d_38">
      <g>
       <use xlink:href="#mfeb0d1a90a" x="356.35" y="540.62" style="stroke: #000000; stroke-width: 0.8"/>
      </g>
     </g>
    </g>
   </g>
   <g id="matplotlib.axis_6">
    <g id="ytick_19">
     <g id="line2d_39">
      <g>
       <use xlink:href="#m14e88d5a5e" x="35.38" y="540.62" style="stroke: #000000; stroke-width: 0.8"/>
      </g>
     </g>
    </g>
    <g id="ytick_20">
     <g id="line2d_40">
      <g>
       <use xlink:href="#m14e88d5a5e" x="35.38" y="494.042" style="stroke: #000000; stroke-width: 0.8"/>
      </g>
     </g>
    </g>
    <g id="ytick_21">
     <g id="line2d_41">
      <g>
       <use xlink:href="#m14e88d5a5e" x="35.38" y="447.464" style="stroke: #000000; stroke-width: 0.8"/>
      </g>
     </g>
    </g>
    <g id="ytick_22">
     <g id="line2d_42">
      <g>
       <use xlink:href="#m14e88d5a5e" x="35.38" y="400.886" style="stroke: #000000; stroke-width: 0.8"/>
      </g>
     </g>
    </g>
    <g id="ytick_23">
     <g id="line2d_43">
      <g>
       <use xlink:href="#m14e88d5a5e" x="35.38" y="354.308" style="stroke: #000000; stroke-width: 0.8"/>
      </g>
     </g>
    </g>
    <g id="ytick_24">
     <g id="line2d_44">
      <g>
       <use xlink:href="#m14e88d5a5e" x="35.38" y="307.73" style="stroke: #000000; stroke-width: 0.8"/>
      </g>
     </g>
    </g>
    <g id="text_7">
     <!-- Air pressure -->
     <g transform="translate(22.300312 454.220312) rotate(-90) scale(0.1 -0.1)">
      <use xlink:href="#DejaVuSans-41"/>
      <use xlink:href="#DejaVuSans-69" x="68.408203"/>
      <use xlink:href="#DejaVuSans-72" x="96.191406"/>
      <use xlink:href="#DejaVuSans-20" x="137.304688"/>
      <use xlink:href="#DejaVuSans-70" x="169.091797"/>
      <use xlink:href="#DejaVuSans-72" x="232.568359"/>
      <use xlink:href="#DejaVuSans-65" x="271.431641"/>
      <use xlink:href="#DejaVuSans-73" x="332.955078"/>
      <use xlink:href="#DejaVuSans-73" x="385.054688"/>
      <use xlink:href="#DejaVuSans-75" x="437.154297"/>
      <use xlink:href="#DejaVuSans-72" x="500.533203"/>
      <use xlink:href="#DejaVuSans-65" x="539.396484"/>
     </g>
    </g>
   </g>
   <g id="patch_13">
    <path d="M 35.38 540.62 
L 35.38 307.73 
" style="fill: none; stroke: #000000; stroke-width: 0.8; stroke-linejoin: miter; stroke-linecap: square"/>
   </g>
   <g id="patch_14">
    <path d="M 356.35 540.62 
L 356.35 307.73 
" style="fill: none; stroke: #000000; stroke-width: 0.8; stroke-linejoin: miter; stroke-linecap: square"/>
   </g>
   <g id="patch_15">
    <path d="M 35.38 540.62 
L 356.35 540.62 
" style="fill: none; stroke: #000000; stroke-width: 0.8; stroke-linejoin: miter; stroke-linecap: square"/>
   </g>
   <g id="patch_16">
    <path d="M 35.38 307.73 
L 356.35 307.73 
" style="fill: none; stroke: #000000; stroke-width: 0.8; stroke-linejoin: miter; stroke-linecap: square"/>
   </g>
  </g>
  <g id="axes_4">
   <g id="patch_17">
    <path d="M 35.38 540.62 
L 709.2 540.62 
L 709.2 307.73 
L 35.38 307.73 
z
" style="fill: #ffffff"/>
   </g>
   <g id="matplotlib.axis_7">
    <g id="xtick_19">
     <g id="line2d_45">
      <g>
       <use xlink:href="#mfeb0d1a90a" x="66.008182" y="540.62" style="stroke: #000000; stroke-width: 0.8"/>
      </g>
     </g>
    </g>
    <g id="xtick_20">
     <g id="line2d_46">
      <g>
       <use xlink:href="#mfeb0d1a90a" x="188.520909" y="540.62" style="stroke: #000000; stroke-width: 0.8"/>
      </g>
     </g>
    </g>
    <g id="xtick_21">
     <g id="line2d_47">
      <g>
       <use xlink:href="#mfeb0d1a90a" x="311.033636" y="540.62" style="stroke: #000000; stroke-width: 0.8"/>
      </g>
     </g>
    </g>
    <g id="xtick_22">
     <g id="line2d_48">
      <g>
       <use xlink:href="#mfeb0d1a90a" x="433.546364" y="540.62" style="stroke: #000000; stroke-width: 0.8"/>
      </g>
     </g>
    </g>
    <g id="xtick_23">
     <g id="line2d_49">
      <g>
       <use xlink:href="#mfeb0d1a90a" x="556.059091" y="540.62" style="stroke: #000000; stroke-width: 0.8"/>
      </g>
     </g>
    </g>
    <g id="xtick_24">
     <g id="line2d_50">
      <g>
       <use xlink:href="#mfeb0d1a90a" x="678.571818" y="540.62" style="stroke: #000000; stroke-width: 0.8"/>
      </g>
     </g>
    </g>
    <g id="text_8">
     <!-- Time -->
     <g transform="translate(360.056406 559.218438) scale(0.1 -0.1)">
      <use xlink:href="#DejaVuSans-54"/>
      <use xlink:href="#DejaVuSans-69" x="57.958984"/>
      <use xlink:href="#DejaVuSans-6d" x="85.742188"/>
      <use xlink:href="#DejaVuSans-65" x="183.154297"/>
     </g>
    </g>
   </g>
   <g id="matplotlib.axis_8">
    <g id="ytick_25">
     <g id="line2d_51">
      <g>
       <use xlink:href="#m14e88d5a5e" x="35.38" y="535.507078" style="stroke: #000000; stroke-width: 0.8"/>
      </g>
     </g>
    </g>
    <g id="ytick_26">
     <g id="line2d_52">
      <g>
       <use xlink:href="#m14e88d5a5e" x="35.38" y="507.775449" style="stroke: #000000; stroke-width: 0.8"/>
      </g>
     </g>
    </g>
    <g id="ytick_27">
     <g id="line2d_53">
      <g>
       <use xlink:href="#m14e88d5a5e" x="35.38" y="480.043819" style="stroke: #000000; stroke-width: 0.8"/>
      </g>
     </g>
    </g>
    <g id="ytick_28">
     <g id="line2d_54">
      <g>
       <use xlink:href="#m14e88d5a5e" x="35.38" y="452.31219" style="stroke: #000000; stroke-width: 0.8"/>
      </g>
     </g>
    </g>
    <g id="ytick_29">
     <g id="line2d_55">
      <g>
       <use xlink:href="#m14e88d5a5e" x="35.38" y="424.58056" style="stroke: #000000; stroke-width: 0.8"/>
      </g>
     </g>
    </g>
    <g id="ytick_30">
     <g id="line2d_56">
      <g>
       <use xlink:href="#m14e88d5a5e" x="35.38" y="396.848931" style="stroke: #000000; stroke-width: 0.8"/>
      </g>
     </g>
    </g>
    <g id="ytick_31">
     <g id="line2d_57">
      <g>
       <use xlink:href="#m14e88d5a5e" x="35.38" y="369.117302" style="stroke: #000000; stroke-width: 0.8"/>
      </g>
     </g>
    </g>
    <g id="ytick_32">
     <g id="line2d_58">
      <g>
       <use xlink:href="#m14e88d5a5e" x="35.38" y="341.385672" style="stroke: #000000; stroke-width: 0.8"/>
      </g>
     </g>
    </g>
    <g id="ytick_33">
     <g id="line2d_59">
      <g>
       <use xlink:href="#m14e88d5a5e" x="35.38" y="313.654043" style="stroke: #000000; stroke-width: 0.8"/>
      </g>
     </g>
    </g>
   </g>
   <g id="line2d_60">
    <path d="M 66.008182 424.58056 
L 71.526773 390.688584 
L 74.592657 373.207699 
L 77.045364 360.423692 
L 79.498072 348.997579 
L 81.337602 341.461385 
L 83.177133 334.906614 
L 85.016663 329.405269 
L 86.243017 326.352188 
L 87.46937 323.806965 
L 88.695724 321.780204 
L 89.922078 320.279478 
L 91.148431 319.309299 
L 91.761608 319.023733 
L 92.374785 318.871102 
L 92.987962 318.851106 
L 93.601138 318.963254 
L 94.214315 319.206866 
L 95.440669 320.084827 
L 96.667022 321.475835 
L 97.893376 323.367836 
L 99.11973 325.74597 
L 100.346083 328.592674 
L 101.572437 331.887816 
L 103.411967 337.621344 
L 105.251498 344.226917 
L 107.091028 351.608693 
L 109.543736 362.476566 
L 112.60962 377.330372 
L 116.901857 399.49376 
L 123.033625 431.09127 
L 126.09951 445.670871 
L 128.552217 456.30982 
L 131.004924 465.813585 
L 132.844454 472.092323 
L 134.683985 477.577541 
L 136.523515 482.223763 
L 137.749869 484.838601 
L 138.976223 487.059585 
L 140.202576 488.883056 
L 141.42893 490.30799 
L 142.655283 491.335968 
L 143.881637 491.971135 
L 145.107991 492.220128 
L 146.334344 492.092007 
L 147.560698 491.598153 
L 148.787052 490.75216 
L 150.013405 489.569712 
L 151.239759 488.068439 
L 152.466112 486.267775 
L 154.305643 483.051916 
L 156.145173 479.28729 
L 157.984704 475.057042 
L 160.437411 468.84451 
L 164.116472 458.739678 
L 170.861417 439.970483 
L 173.314124 433.727049 
L 175.766831 428.068702 
L 177.606362 424.293047 
L 179.445892 420.972121 
L 181.285423 418.143144 
L 183.124953 415.832728 
L 184.351307 414.588752 
L 185.57766 413.584395 
L 186.804014 412.819422 
L 188.030368 412.291452 
L 189.256721 411.995999 
L 190.483075 411.926522 
L 191.709429 412.074501 
L 192.935782 412.429523 
L 194.162136 412.97938 
L 195.388489 413.710183 
L 197.22802 415.111494 
L 199.06755 416.826928 
L 201.520258 419.491585 
L 205.199318 423.959722 
L 209.491556 429.18206 
L 211.944263 431.830172 
L 213.783794 433.528866 
L 215.623324 434.910356 
L 216.849678 435.62658 
L 218.076031 436.161038 
L 219.302385 436.500098 
L 220.528739 436.631829 
L 221.755092 436.546104 
L 222.981446 436.234708 
L 224.2078 435.691413 
L 225.434153 434.912051 
L 226.660507 433.894565 
L 227.88686 432.639048 
L 229.113214 431.147759 
L 230.952745 428.479045 
L 232.792275 425.314375 
L 234.631805 421.688461 
L 237.084513 416.215489 
L 239.53722 410.136264 
L 242.603104 401.930057 
L 251.187579 378.452781 
L 253.640287 372.524693 
L 255.479817 368.552712 
L 257.319348 365.082366 
L 259.158878 362.193831 
L 260.385232 360.627986 
L 261.611585 359.373417 
L 262.837939 358.448236 
L 264.064292 357.868652 
L 265.290646 357.648836 
L 266.517 357.800786 
L 267.743353 358.334215 
L 268.969707 359.256454 
L 270.196061 360.572362 
L 271.422414 362.284264 
L 272.648768 364.391898 
L 273.875121 366.892379 
L 275.101475 369.780189 
L 276.941006 374.819592 
L 278.780536 380.673019 
L 280.620066 387.289075 
L 283.072774 397.184898 
L 285.525481 408.138888 
L 288.591365 422.988058 
L 292.883603 445.058869 
L 298.402194 473.442305 
L 301.468078 488.103053 
L 303.920785 498.781345 
L 305.760316 506.002335 
L 307.599846 512.432846 
L 309.439377 517.978761 
L 310.66573 521.142789 
L 311.892084 523.854254 
L 313.118438 526.093657 
L 314.344791 527.844099 
L 315.571145 529.091401 
L 316.797498 529.824212 
L 317.410675 529.99493 
L 318.023852 530.034091 
L 318.637029 529.941107 
L 319.250206 529.715578 
L 319.863382 529.357295 
L 321.089736 528.242594 
L 322.31609 526.59917 
L 323.542443 524.432261 
L 324.768797 521.750161 
L 325.995151 518.564178 
L 327.221504 514.888582 
L 329.061035 508.495461 
L 330.900565 501.10954 
L 332.740096 492.813638 
L 335.192803 480.502713 
L 337.64551 466.999019 
L 340.711394 448.875944 
L 346.843162 410.800493 
L 351.1354 384.90818 
L 354.201284 367.88683 
L 356.653991 355.589717 
L 358.493522 347.307036 
L 360.333052 339.937105 
L 362.172583 333.563047 
L 363.398936 329.902019 
L 364.62529 326.732201 
L 365.851643 324.067954 
L 367.077997 321.920677 
L 368.304351 320.298747 
L 369.530704 319.207482 
L 370.143881 318.861671 
L 370.757058 318.649126 
L 371.370235 318.569646 
L 371.983412 318.622841 
L 372.596588 318.808128 
L 373.209765 319.124736 
L 374.436119 320.147901 
L 375.662472 321.682468 
L 376.888826 323.715684 
L 378.11518 326.23201 
L 379.341533 329.213227 
L 380.567887 332.638571 
L 382.407417 338.558015 
L 384.246948 345.336578 
L 386.086478 352.87672 
L 388.539186 363.930464 
L 391.60507 378.972026 
L 396.510484 404.541552 
L 401.415899 429.919204 
L 404.481783 444.69575 
L 406.93449 455.520633 
L 409.387197 465.229976 
L 411.226728 471.672374 
L 413.066258 477.326557 
L 414.905789 482.144428 
L 416.132142 484.873879 
L 417.358496 487.208706 
L 418.584849 489.144468 
L 419.811203 490.679377 
L 421.037557 491.814264 
L 422.26391 492.552546 
L 423.490264 492.900163 
L 424.716618 492.865508 
L 425.942971 492.459333 
L 427.169325 491.694644 
L 428.395678 490.58658 
L 429.622032 489.152279 
L 430.848386 487.410732 
L 432.687916 484.267991 
L 434.527447 480.556894 
L 436.366977 476.359837 
L 438.819684 470.159222 
L 441.885568 461.741295 
L 450.470044 437.678193 
L 452.922751 431.536096 
L 455.375458 426.032255 
L 457.214989 422.401966 
L 459.054519 419.247011 
L 460.89405 416.600118 
L 462.120403 415.12907 
L 463.346757 413.897599 
L 464.57311 412.907317 
L 465.799464 412.157662 
L 467.025818 411.645927 
L 468.252171 411.367305 
L 469.478525 411.314941 
L 470.704879 411.480013 
L 471.931232 411.851819 
L 473.157586 412.417875 
L 474.997116 413.599816 
L 476.836647 415.13258 
L 478.676177 416.95544 
L 481.128884 419.722127 
L 486.034299 425.769107 
L 489.100183 429.389585 
L 491.55289 431.92294 
L 493.392421 433.505921 
L 495.231951 434.749066 
L 496.458305 435.361973 
L 497.684658 435.78542 
L 498.911012 436.006877 
L 500.137366 436.015585 
L 501.363719 435.802658 
L 502.590073 435.361173 
L 503.816426 434.686239 
L 505.04278 433.775059 
L 506.269134 432.626971 
L 507.495487 431.243473 
L 509.335018 428.735445 
L 511.174548 425.727977 
L 513.014079 422.253257 
L 514.853609 418.353795 
L 517.306316 412.58541 
L 520.3722 404.673408 
L 525.890792 389.536953 
L 529.569853 379.764605 
L 532.02256 373.817416 
L 533.86209 369.806969 
L 535.701621 366.278007 
L 537.541151 363.311541 
L 538.767505 361.68356 
L 539.993858 360.359177 
L 541.220212 359.356968 
L 542.446566 358.693655 
L 543.672919 358.38397 
L 544.899273 358.440514 
L 546.125627 358.873648 
L 547.35198 359.691378 
L 548.578334 360.899276 
L 549.804687 362.500401 
L 551.031041 364.495246 
L 552.257395 366.8817 
L 553.483748 369.655024 
L 555.323279 374.523561 
L 557.162809 380.209507 
L 559.00234 386.664068 
L 560.84187 393.826001 
L 563.294577 404.347822 
L 566.360461 418.772476 
L 570.039522 437.332464 
L 578.010821 478.013101 
L 581.076705 492.209975 
L 583.529412 502.406586 
L 585.368943 509.207181 
L 587.208473 515.171491 
L 589.048003 520.210531 
L 590.274357 523.016863 
L 591.500711 525.356941 
L 592.727064 527.213204 
L 593.953418 528.570775 
L 595.179772 529.417573 
L 595.792948 529.646444 
L 596.406125 529.744402 
L 597.019302 529.710762 
L 597.632479 529.545026 
L 598.245656 529.246885 
L 599.472009 528.253113 
L 600.698363 526.730808 
L 601.924717 524.684401 
L 603.15107 522.12138 
L 604.377424 519.052261 
L 605.603777 515.490531 
L 607.443308 509.260931 
L 609.282838 502.027618 
L 611.122369 493.871115 
L 613.575076 481.721909 
L 616.027783 468.34841 
L 619.093667 450.338522 
L 624.612259 416.126535 
L 628.904496 389.906749 
L 631.97038 372.438455 
L 634.423088 359.668435 
L 636.875795 348.260367 
L 638.715325 340.740752 
L 640.554856 334.205491 
L 642.394386 328.726891 
L 643.62074 325.690923 
L 644.847093 323.164475 
L 646.073447 321.158239 
L 647.299801 319.679872 
L 648.526154 318.733962 
L 649.139331 318.46127 
L 649.752508 318.322016 
L 650.365685 318.315909 
L 650.978862 318.442465 
L 651.592038 318.70101 
L 652.818392 319.610437 
L 654.044746 321.035074 
L 655.271099 322.962898 
L 656.497453 325.379061 
L 657.723807 328.266007 
L 658.95016 331.603588 
L 660.789691 337.404835 
L 662.629221 344.082852 
L 664.468751 351.541557 
L 666.921459 362.518408 
L 669.987343 377.517265 
L 674.27958 399.895468 
L 678.571818 422.45979 
L 678.571818 422.45979 
" clip-path="url(#pa0f474c381)" style="fill: none; stroke: #1f77b4; stroke-width: 1.5; stroke-linecap: square"/>
   </g>
   <g id="patch_18">
    <path d="M 35.38 540.62 
L 35.38 307.73 
" style="fill: none; stroke: #000000; stroke-width: 0.8; stroke-linejoin: miter; stroke-linecap: square"/>
   </g>
   <g id="patch_19">
    <path d="M 709.2 540.62 
L 709.2 307.73 
" style="fill: none; stroke: #000000; stroke-width: 0.8; stroke-linejoin: miter; stroke-linecap: square"/>
   </g>
   <g id="patch_20">
    <path d="M 35.38 540.62 
L 709.2 540.62 
" style="fill: none; stroke: #000000; stroke-width: 0.8; stroke-linejoin: miter; stroke-linecap: square"/>
   </g>
   <g id="patch_21">
    <path d="M 35.38 307.73 
L 709.2 307.73 
" style="fill: none; stroke: #000000; stroke-width: 0.8; stroke-linejoin: miter; stroke-linecap: square"/>
   </g>
   <g id="text_9">
    <!-- A3 and E4 played together -->
    <g transform="translate(291.800937 301.73) scale(0.12 -0.12)">
     <defs>
      <path id="DejaVuSans-61" d="M 2194 1759 
Q 1497 1759 1228 1600 
Q 959 1441 959 1056 
Q 959 750 1161 570 
Q 1363 391 1709 391 
Q 2188 391 2477 730 
Q 2766 1069 2766 1631 
L 2766 1759 
L 2194 1759 
z
M 3341 1997 
L 3341 0 
L 2766 0 
L 2766 531 
Q 2569 213 2275 61 
Q 1981 -91 1556 -91 
Q 1019 -91 701 211 
Q 384 513 384 1019 
Q 384 1609 779 1909 
Q 1175 2209 1959 2209 
L 2766 2209 
L 2766 2266 
Q 2766 2663 2505 2880 
Q 2244 3097 1772 3097 
Q 1472 3097 1187 3025 
Q 903 2953 641 2809 
L 641 3341 
Q 956 3463 1253 3523 
Q 1550 3584 1831 3584 
Q 2591 3584 2966 3190 
Q 3341 2797 3341 1997 
z
" transform="scale(0.015625)"/>
      <path id="DejaVuSans-6e" d="M 3513 2113 
L 3513 0 
L 2938 0 
L 2938 2094 
Q 2938 2591 2744 2837 
Q 2550 3084 2163 3084 
Q 1697 3084 1428 2787 
Q 1159 2491 1159 1978 
L 1159 0 
L 581 0 
L 581 3500 
L 1159 3500 
L 1159 2956 
Q 1366 3272 1645 3428 
Q 1925 3584 2291 3584 
Q 2894 3584 3203 3211 
Q 3513 2838 3513 2113 
z
" transform="scale(0.015625)"/>
      <path id="DejaVuSans-64" d="M 2906 2969 
L 2906 4863 
L 3481 4863 
L 3481 0 
L 2906 0 
L 2906 525 
Q 2725 213 2448 61 
Q 2172 -91 1784 -91 
Q 1150 -91 751 415 
Q 353 922 353 1747 
Q 353 2572 751 3078 
Q 1150 3584 1784 3584 
Q 2172 3584 2448 3432 
Q 2725 3281 2906 2969 
z
M 947 1747 
Q 947 1113 1208 752 
Q 1469 391 1925 391 
Q 2381 391 2643 752 
Q 2906 1113 2906 1747 
Q 2906 2381 2643 2742 
Q 2381 3103 1925 3103 
Q 1469 3103 1208 2742 
Q 947 2381 947 1747 
z
" transform="scale(0.015625)"/>
      <path id="DejaVuSans-6c" d="M 603 4863 
L 1178 4863 
L 1178 0 
L 603 0 
L 603 4863 
z
" transform="scale(0.015625)"/>
      <path id="DejaVuSans-79" d="M 2059 -325 
Q 1816 -950 1584 -1140 
Q 1353 -1331 966 -1331 
L 506 -1331 
L 506 -850 
L 844 -850 
Q 1081 -850 1212 -737 
Q 1344 -625 1503 -206 
L 1606 56 
L 191 3500 
L 800 3500 
L 1894 763 
L 2988 3500 
L 3597 3500 
L 2059 -325 
z
" transform="scale(0.015625)"/>
      <path id="DejaVuSans-74" d="M 1172 4494 
L 1172 3500 
L 2356 3500 
L 2356 3053 
L 1172 3053 
L 1172 1153 
Q 1172 725 1289 603 
Q 1406 481 1766 481 
L 2356 481 
L 2356 0 
L 1766 0 
Q 1100 0 847 248 
Q 594 497 594 1153 
L 594 3053 
L 172 3053 
L 172 3500 
L 594 3500 
L 594 4494 
L 1172 4494 
z
" transform="scale(0.015625)"/>
      <path id="DejaVuSans-6f" d="M 1959 3097 
Q 1497 3097 1228 2736 
Q 959 2375 959 1747 
Q 959 1119 1226 758 
Q 1494 397 1959 397 
Q 2419 397 2687 759 
Q 2956 1122 2956 1747 
Q 2956 2369 2687 2733 
Q 2419 3097 1959 3097 
z
M 1959 3584 
Q 2709 3584 3137 3096 
Q 3566 2609 3566 1747 
Q 3566 888 3137 398 
Q 2709 -91 1959 -91 
Q 1206 -91 779 398 
Q 353 888 353 1747 
Q 353 2609 779 3096 
Q 1206 3584 1959 3584 
z
" transform="scale(0.015625)"/>
      <path id="DejaVuSans-67" d="M 2906 1791 
Q 2906 2416 2648 2759 
Q 2391 3103 1925 3103 
Q 1463 3103 1205 2759 
Q 947 2416 947 1791 
Q 947 1169 1205 825 
Q 1463 481 1925 481 
Q 2391 481 2648 825 
Q 2906 1169 2906 1791 
z
M 3481 434 
Q 3481 -459 3084 -895 
Q 2688 -1331 1869 -1331 
Q 1566 -1331 1297 -1286 
Q 1028 -1241 775 -1147 
L 775 -588 
Q 1028 -725 1275 -790 
Q 1522 -856 1778 -856 
Q 2344 -856 2625 -561 
Q 2906 -266 2906 331 
L 2906 616 
Q 2728 306 2450 153 
Q 2172 0 1784 0 
Q 1141 0 747 490 
Q 353 981 353 1791 
Q 353 2603 747 3093 
Q 1141 3584 1784 3584 
Q 2172 3584 2450 3431 
Q 2728 3278 2906 2969 
L 2906 3500 
L 3481 3500 
L 3481 434 
z
" transform="scale(0.015625)"/>
      <path id="DejaVuSans-68" d="M 3513 2113 
L 3513 0 
L 2938 0 
L 2938 2094 
Q 2938 2591 2744 2837 
Q 2550 3084 2163 3084 
Q 1697 3084 1428 2787 
Q 1159 2491 1159 1978 
L 1159 0 
L 581 0 
L 581 4863 
L 1159 4863 
L 1159 2956 
Q 1366 3272 1645 3428 
Q 1925 3584 2291 3584 
Q 2894 3584 3203 3211 
Q 3513 2838 3513 2113 
z
" transform="scale(0.015625)"/>
     </defs>
     <use xlink:href="#DejaVuSans-41"/>
     <use xlink:href="#DejaVuSans-33" x="68.408203"/>
     <use xlink:href="#DejaVuSans-20" x="132.03125"/>
     <use xlink:href="#DejaVuSans-61" x="163.818359"/>
     <use xlink:href="#DejaVuSans-6e" x="225.097656"/>
     <use xlink:href="#DejaVuSans-64" x="288.476562"/>
     <use xlink:href="#DejaVuSans-20" x="351.953125"/>
     <use xlink:href="#DejaVuSans-45" x="383.740234"/>
     <use xlink:href="#DejaVuSans-34" x="446.923828"/>
     <use xlink:href="#DejaVuSans-20" x="510.546875"/>
     <use xlink:href="#DejaVuSans-70" x="542.333984"/>
     <use xlink:href="#DejaVuSans-6c" x="605.810547"/>
     <use xlink:href="#DejaVuSans-61" x="633.59375"/>
     <use xlink:href="#DejaVuSans-79" x="694.873047"/>
     <use xlink:href="#DejaVuSans-65" x="754.052734"/>
     <use xlink:href="#DejaVuSans-64" x="815.576172"/>
     <use xlink:href="#DejaVuSans-20" x="879.052734"/>
     <use xlink:href="#DejaVuSans-74" x="910.839844"/>
     <use xlink:href="#DejaVuSans-6f" x="950.048828"/>
     <use xlink:href="#DejaVuSans-67" x="1011.230469"/>
     <use xlink:href="#DejaVuSans-65" x="1074.707031"/>
     <use xlink:href="#DejaVuSans-74" x="1136.230469"/>
     <use xlink:href="#DejaVuSans-68" x="1175.439453"/>
     <use xlink:href="#DejaVuSans-65" x="1238.818359"/>
     <use xlink:href="#DejaVuSans-72" x="1300.341797"/>
    </g>
   </g>
  </g>
 </g>
 <defs>
  <clipPath id="pa431e30b1f">
   <rect x="35.38" y="26.88" width="320.97" height="232.89"/>
  </clipPath>
  <clipPath id="p044c89bdd1">
   <rect x="388.23" y="26.88" width="320.97" height="232.89"/>
  </clipPath>
  <clipPath id="pa0f474c381">
   <rect x="35.38" y="307.73" width="673.82" height="232.89"/>
  </clipPath>
 </defs>
</svg>
